<svg width="156" height="229" viewBox="0 0 156 229" fill="none" xmlns="http://www.w3.org/2000/svg">
<g clip-path="url(#clip0_101_5)">
<g opacity="0.1">
<path d="M54.8828 122.233C54.1944 122.233 53.4981 122.225 52.8272 122.218H52.7818C52.1124 122.21 51.4204 122.202 50.7405 122.202C50.0769 122.202 49.4918 122.21 48.9521 122.225H48.8741C48.7251 122.24 48.5747 122.224 48.4321 122.179C48.2894 122.133 48.1575 122.058 48.0444 121.959C47.8279 121.623 47.7505 121.215 47.8289 120.823C47.8341 120.709 47.8394 120.593 47.8394 120.483C47.8267 114.647 47.8283 108.737 47.8294 103.022V102.031C47.8294 100.673 47.8294 99.3152 47.8294 97.9574H47.8162C47.8162 95.7407 47.8162 93.4734 47.8115 91.473C47.8072 86.4582 47.8009 81.275 47.8257 76.1515C47.8478 71.5443 49.7912 67.5584 51.9543 63.5449C53.9108 59.8303 56.5556 56.5308 59.7446 53.8259C62.9371 51.1719 66.653 49.237 70.6441 48.1504C73.1162 47.4529 75.6695 47.0927 78.2361 47.0793C83.6601 47.0955 88.9401 48.8452 93.3212 52.0781C95.0098 53.2808 96.5965 54.6235 98.0649 56.0922C99.4805 57.5138 100.765 59.063 101.902 60.7207C103.034 62.3793 104.011 64.1411 104.819 65.9833C105.653 67.8939 106.319 69.8754 106.808 71.9045C107.638 75.4632 108.038 79.1104 108 82.7665C108 86.2413 108 89.8467 108 93.0273C107.996 101.533 107.992 110.33 108.041 118.989C108.046 119.885 107.908 120.428 107.591 120.75C107.415 120.9 107.211 121.013 106.992 121.082C106.772 121.151 106.54 121.174 106.312 121.15C106.199 121.15 106.078 121.146 105.95 121.137C105.269 121.09 104.545 121.067 103.671 121.067C103.026 121.067 102.37 121.08 101.735 121.091H101.728C101.092 121.103 100.435 121.115 99.7832 121.115C98.5144 121.132 97.2461 121.055 95.9882 120.886C94.1119 120.608 92.2767 120.096 90.524 119.364C88.7788 118.636 87.0983 117.758 85.5009 116.74L85.3396 116.639C83.0763 115.22 80.7361 113.754 78.7774 111.834C78.5376 111.599 78.2894 111.355 78.0395 111.355C77.8287 111.355 77.6316 111.522 77.4186 111.881C76.7297 113.046 75.8906 114.113 74.9234 115.054C73.9945 115.954 72.9736 116.751 71.878 117.433C69.6253 118.771 67.2528 119.892 64.7919 120.78C63.2077 121.385 61.555 121.788 59.8721 121.98C58.2155 122.165 56.5494 122.25 54.8828 122.233ZM70.0917 63.612C69.6502 63.6715 69.2315 63.846 68.8768 64.1183L68.7229 64.2131C65.7106 66.0494 64.1504 69.084 62.6414 72.0175L62.5138 72.2647L62.4206 72.4454L62.3989 72.4875C61.8134 73.6182 61.2083 74.7873 61.212 76.1243C61.2188 78.8419 61.2341 81.6128 61.2494 84.2851V84.4109C61.2636 86.9495 61.2784 89.5744 61.2852 92.155C61.2947 95.5334 61.2926 98.8228 61.29 102.306V102.554C61.29 103.979 61.29 105.453 61.29 106.924C65.9414 105.086 70.9988 98.899 70.818 92.9591C70.6251 86.6713 70.6662 80.2673 70.7057 74.0759V74.0722C70.7242 71.2294 70.7426 68.2901 70.7389 65.3977C70.7431 65.2347 70.7576 65.0722 70.7822 64.9112C70.8438 64.4359 70.9071 63.9451 70.5028 63.7197C70.3773 63.6484 70.2356 63.6113 70.0917 63.612ZM85.0797 62.9428C85.0284 62.9409 84.9772 62.9498 84.9294 62.9691C84.8817 62.9884 84.8384 63.0175 84.8025 63.0547C84.598 63.3792 84.5158 63.7674 84.5711 64.1481C84.6038 67.7865 84.5975 71.4814 84.5911 75.0543C84.5911 76.3689 84.5869 77.5545 84.5864 78.7444C84.5832 84.1375 84.5832 88.6024 84.5864 92.7998C84.5864 92.9346 84.578 93.0758 84.5701 93.2122C84.5244 93.5536 84.55 93.9009 84.6454 94.2316C86.3627 98.6629 88.6512 103.071 93.7218 105.304C93.9357 105.411 94.1685 105.476 94.407 105.493C94.4613 105.497 94.5158 105.49 94.5671 105.471C94.6185 105.453 94.6655 105.424 94.7053 105.387C94.8697 105.217 94.8634 104.862 94.8529 104.487C94.8529 104.446 94.8529 104.405 94.8529 104.365C94.7954 101.192 94.8423 97.9702 94.8877 94.8492C94.9704 89.1689 95.0558 83.2951 94.5124 77.539C93.9663 71.7654 91.09 66.9883 85.9626 63.3483C85.7119 63.1319 85.4059 62.991 85.0797 62.9428Z" fill="#FE9C00"/>
<path d="M75.9433 28.6085C79.499 27.9925 82.9487 27.5017 86.3505 26.7775C90.6636 25.8599 91.3309 26.4578 90.3563 30.774C88.4841 39.0542 80.3291 45.8195 72.2738 45.6479C66.4031 45.5233 61.7733 42.8184 59.0245 37.6656C56.1155 32.3902 53.6709 26.8663 51.7192 21.1579C49.8881 15.5458 51.0936 11.7629 55.9685 8.54283C62.0985 4.49304 68.7518 1.48768 76.0345 0.208796C80.9701 -0.658178 84.4151 1.15677 86.7189 5.66748C87.3467 6.9554 87.9072 8.27569 88.3982 9.62295C89.8577 13.4095 91.2276 14.1566 95.089 13.0866C97.5537 12.3724 100.151 12.259 102.667 12.7557C103.464 12.9155 104.385 12.9821 104.618 14.0202C104.858 15.1008 104.34 15.8154 103.497 16.4495C99.6387 19.3526 95.2097 21.0215 90.7321 22.6105C86.0411 24.2763 81.3664 25.9985 76.6839 27.6925C76.4135 27.7926 76.0782 27.7815 75.9433 28.6085Z" fill="#FE130B"/>
</g>
</g>
<defs>
<clipPath id="clip0_101_5">
<rect width="156" height="229" fill="white"/>
</clipPath>
</defs>
</svg>
